<svg xmlns="http://www.w3.org/2000/svg" widt='96' height='50' viewBox="0 0 512 512" xml:space="preserve"><path fill="#FFB0AA" d="M195 10h160v137H195z"/><path fill="#6E83B7" d="m440 360 62-213H119.373L94.734 40H10v32h59.266L136 361.818V440h304v-32H168v-48z"/><circle fill="#EDEFF1" cx="168" cy="455" r="47"/><circle fill="#D3D3D3" cx="168" cy="455" r="20"/><circle fill="#EDEFF1" cx="366.286" cy="455" r="47"/><circle fill="#D3D3D3" cx="366.286" cy="455" r="20"/><path fill="#FFE352" d="M146 49h98v98h-98z"/><g><path fill="#FFB236" d="m211 81-16-6-16 6V49h32z"/></g><g><path fill="#FF7B7B" d="m296 52-21-8-21 8V10h42z"/></g><g><path fill="#80D6FB" d="M320 77h120v70H320z"/></g><g><path fill="#46BEE8" d="m396 109-16-6-16 6V77h32z"/></g></svg>